<svg width="42" height="42" viewBox="0 0 42 42" fill="none" xmlns="http://www.w3.org/2000/svg">
<path d="M22.3125 19.6874V28.8749C22.3125 29.223 22.1742 29.5568 21.928 29.803C21.6819 30.0491 21.3481 30.1874 21 30.1874C20.6519 30.1874 20.318 30.0491 20.0719 29.803C19.8257 29.5568 19.6875 29.223 19.6875 28.8749V19.6874C19.6875 19.3393 19.8257 19.0055 20.0719 18.7593C20.318 18.5132 20.6519 18.3749 21 18.3749C21.3481 18.3749 21.6819 18.5132 21.928 18.7593C22.1742 19.0055 22.3125 19.3393 22.3125 19.6874ZM28.3565 19.5561L27.4378 28.7436C27.4196 28.9157 27.4356 29.0896 27.4849 29.2554C27.5342 29.4212 27.6158 29.5756 27.7249 29.7098C27.8341 29.8439 27.9687 29.9552 28.121 30.0372C28.2733 30.1191 28.4404 30.1702 28.6125 30.1874C28.6567 30.1898 28.7011 30.1898 28.7454 30.1874C29.0704 30.187 29.3838 30.066 29.6248 29.8477C29.8657 29.6295 30.0171 29.3296 30.0497 29.0061L30.9684 19.8186C31.0032 19.4723 30.899 19.1263 30.6787 18.8568C30.4584 18.5872 30.1401 18.4163 29.7937 18.3815C29.4474 18.3466 29.1014 18.4508 28.8318 18.6711C28.5623 18.8914 28.3913 19.2098 28.3565 19.5561ZM13.6434 19.5561C13.6086 19.2098 13.4376 18.8914 13.1681 18.6711C12.8986 18.4508 12.5526 18.3466 12.2062 18.3815C11.8599 18.4163 11.5415 18.5872 11.3212 18.8568C11.1009 19.1263 10.9967 19.4723 11.0315 19.8186L11.9503 29.0061C11.9829 29.331 12.1355 29.6321 12.3782 29.8505C12.6209 30.0689 12.9363 30.189 13.2628 30.1874C13.307 30.1898 13.3514 30.1898 13.3957 30.1874C13.5672 30.1702 13.7336 30.1193 13.8854 30.0378C14.0373 29.9562 14.1716 29.8455 14.2807 29.7121C14.3897 29.5786 14.4715 29.425 14.5212 29.26C14.5709 29.0949 14.5876 28.9217 14.5704 28.7502L13.6434 19.5561ZM39.3635 14.6113L36.8911 33.1602C36.8048 33.7897 36.494 34.3669 36.0158 34.7853C35.5377 35.2038 34.9244 35.4354 34.289 35.4374H7.7109C7.07551 35.4354 6.46225 35.2038 5.9841 34.7853C5.50595 34.3669 5.19512 33.7897 5.10887 33.1602L2.63645 14.6113C2.61167 14.4259 2.6268 14.2373 2.68083 14.0582C2.73487 13.8792 2.82656 13.7137 2.94976 13.5729C3.07296 13.4322 3.22482 13.3194 3.39517 13.2421C3.56551 13.1648 3.75041 13.1249 3.93747 13.1249H11.2169L20.0156 3.07278C20.1388 2.93312 20.2902 2.82127 20.46 2.74466C20.6297 2.66804 20.8138 2.62842 21 2.62842C21.1862 2.62842 21.3703 2.66804 21.54 2.74466C21.7097 2.82127 21.8612 2.93312 21.9843 3.07278L30.783 13.1249H38.0625C38.2495 13.1249 38.4344 13.1648 38.6048 13.2421C38.7751 13.3194 38.927 13.4322 39.0502 13.5729C39.1734 13.7137 39.2651 13.8792 39.3191 14.0582C39.3731 14.2373 39.3883 14.4259 39.3635 14.6113ZM14.7049 13.1249H27.295L21 5.93075L14.7049 13.1249ZM36.5629 15.7499H5.437L7.7109 32.8124H34.289L36.5629 15.7499Z" fill="white"/>
</svg>
