<svg width="33" height="32" viewBox="0 0 33 32" fill="none" xmlns="http://www.w3.org/2000/svg">
<path d="M3.9375 19.6875H1.3125C0.964403 19.6875 0.630564 19.8258 0.384422 20.0719C0.138281 20.3181 0 20.6519 0 21V30.1875C0 30.5356 0.138281 30.8694 0.384422 31.1156C0.630564 31.3617 0.964403 31.5 1.3125 31.5H3.9375C5.50394 31.5 7.00621 30.8777 8.11385 29.7701C9.22149 28.6625 9.84375 27.1602 9.84375 25.5938C9.84375 24.0273 9.22149 22.525 8.11385 21.4174C7.00621 20.3098 5.50394 19.6875 3.9375 19.6875ZM3.9375 28.875H2.625V22.3125H3.9375C4.80774 22.3125 5.64234 22.6582 6.25769 23.2736C6.87305 23.8889 7.21875 24.7235 7.21875 25.5938C7.21875 26.464 6.87305 27.2986 6.25769 27.9139C5.64234 28.5293 4.80774 28.875 3.9375 28.875ZM31.751 28.0695C32.0025 28.3101 32.1481 28.6408 32.1558 28.9887C32.1635 29.3367 32.0326 29.6735 31.792 29.925C31.335 30.417 30.7824 30.8104 30.1679 31.0812C29.5535 31.3521 28.8902 31.4946 28.2188 31.5C25.323 31.5 22.9688 28.8504 22.9688 25.5938C22.9688 22.3371 25.323 19.6875 28.2188 19.6875C28.8902 19.6929 29.5535 19.8354 30.1679 20.1063C30.7824 20.3771 31.335 20.7705 31.792 21.2625C32.0274 21.515 32.1538 21.85 32.144 22.195C32.1341 22.54 31.9888 22.8673 31.7394 23.1059C31.49 23.3445 31.1566 23.4752 30.8115 23.4698C30.4664 23.4644 30.1373 23.3233 29.8955 23.077C29.6824 22.8426 29.4239 22.6539 29.1357 22.5225C28.8474 22.391 28.5355 22.3196 28.2188 22.3125C26.7717 22.3125 25.5938 23.7891 25.5938 25.5938C25.5938 27.3984 26.7717 28.875 28.2188 28.875C28.5355 28.8679 28.8474 28.7965 29.1357 28.665C29.4239 28.5336 29.6824 28.3449 29.8955 28.1105C30.1361 27.859 30.4668 27.7134 30.8148 27.7057C31.1627 27.698 31.4995 27.8289 31.751 28.0695ZM16.4063 19.6875C13.5105 19.6875 11.1563 22.3371 11.1563 25.5938C11.1563 28.8504 13.5105 31.5 16.4063 31.5C19.302 31.5 21.6563 28.8504 21.6563 25.5938C21.6563 22.3371 19.302 19.6875 16.4063 19.6875ZM16.4063 28.875C14.9592 28.875 13.7813 27.3984 13.7813 25.5938C13.7813 23.7891 14.9592 22.3125 16.4063 22.3125C17.8533 22.3125 19.0313 23.7891 19.0313 25.5938C19.0313 27.3984 17.8533 28.875 16.4063 28.875ZM3.28125 15.75C3.62935 15.75 3.96319 15.6117 4.20933 15.3656C4.45547 15.1194 4.59375 14.7856 4.59375 14.4375V2.625H19.0313V10.5C19.0313 10.8481 19.1695 11.1819 19.4157 11.4281C19.6618 11.6742 19.9957 11.8125 20.3438 11.8125H28.2188V14.4375C28.2188 14.7856 28.357 15.1194 28.6032 15.3656C28.8493 15.6117 29.1832 15.75 29.5313 15.75C29.8793 15.75 30.2132 15.6117 30.4593 15.3656C30.7055 15.1194 30.8438 14.7856 30.8438 14.4375V10.5C30.8439 10.3276 30.8101 10.1568 30.7442 9.99751C30.6783 9.83818 30.5817 9.69339 30.4598 9.57141L21.2723 0.383907C21.1504 0.262062 21.0056 0.165443 20.8462 0.0995714C20.6869 0.0336995 20.5162 -0.000135169 20.3438 4.05823e-07H4.59375C3.89756 4.05823e-07 3.22988 0.276562 2.73759 0.768845C2.24531 1.26113 1.96875 1.92881 1.96875 2.625V14.4375C1.96875 14.7856 2.10703 15.1194 2.35317 15.3656C2.59931 15.6117 2.93315 15.75 3.28125 15.75ZM21.6563 4.48055L26.3632 9.1875H21.6563V4.48055Z" fill="white"/>
</svg>
