<svg width="42" height="42" viewBox="0 0 42 42" fill="none" xmlns="http://www.w3.org/2000/svg">
<path d="M35.4375 9.1875H28.875V7.875C28.875 6.83071 28.4602 5.82919 27.7217 5.09077C26.9833 4.35234 25.9818 3.9375 24.9375 3.9375H17.0625C16.0182 3.9375 15.0167 4.35234 14.2783 5.09077C13.5398 5.82919 13.125 6.83071 13.125 7.875V9.1875H6.5625C5.86631 9.1875 5.19863 9.46406 4.70634 9.95634C4.21406 10.4486 3.9375 11.1163 3.9375 11.8125V32.8125C3.9375 33.5087 4.21406 34.1764 4.70634 34.6687C5.19863 35.1609 5.86631 35.4375 6.5625 35.4375H35.4375C36.1337 35.4375 36.8014 35.1609 37.2937 34.6687C37.7859 34.1764 38.0625 33.5087 38.0625 32.8125V11.8125C38.0625 11.1163 37.7859 10.4486 37.2937 9.95634C36.8014 9.46406 36.1337 9.1875 35.4375 9.1875ZM15.75 7.875C15.75 7.5269 15.8883 7.19306 16.1344 6.94692C16.3806 6.70078 16.7144 6.5625 17.0625 6.5625H24.9375C25.2856 6.5625 25.6194 6.70078 25.8656 6.94692C26.1117 7.19306 26.25 7.5269 26.25 7.875V9.1875H15.75V7.875ZM35.4375 32.8125H6.5625V11.8125H35.4375V32.8125ZM26.25 22.3125C26.25 22.6606 26.1117 22.9944 25.8656 23.2406C25.6194 23.4867 25.2856 23.625 24.9375 23.625H22.3125V26.25C22.3125 26.5981 22.1742 26.9319 21.9281 27.1781C21.6819 27.4242 21.3481 27.5625 21 27.5625C20.6519 27.5625 20.3181 27.4242 20.0719 27.1781C19.8258 26.9319 19.6875 26.5981 19.6875 26.25V23.625H17.0625C16.7144 23.625 16.3806 23.4867 16.1344 23.2406C15.8883 22.9944 15.75 22.6606 15.75 22.3125C15.75 21.9644 15.8883 21.6306 16.1344 21.3844C16.3806 21.1383 16.7144 21 17.0625 21H19.6875V18.375C19.6875 18.0269 19.8258 17.6931 20.0719 17.4469C20.3181 17.2008 20.6519 17.0625 21 17.0625C21.3481 17.0625 21.6819 17.2008 21.9281 17.4469C22.1742 17.6931 22.3125 18.0269 22.3125 18.375V21H24.9375C25.2856 21 25.6194 21.1383 25.8656 21.3844C26.1117 21.6306 26.25 21.9644 26.25 22.3125Z" fill="white"/>
</svg>
