<svg width="31" height="31" viewBox="0 0 31 31" fill="none" xmlns="http://www.w3.org/2000/svg">
<path d="M25.65 8.7875H20.7504C21.0018 8.62965 21.2401 8.45174 21.4629 8.2555C21.7988 7.95616 22.0695 7.59075 22.2578 7.18211C22.4462 6.77347 22.5483 6.33037 22.5577 5.8805C22.5723 5.38561 22.4857 4.89296 22.3032 4.43272C22.1207 3.97248 21.8462 3.55434 21.4964 3.20391C21.1467 2.85349 20.7291 2.57816 20.2692 2.39479C19.8093 2.21142 19.3168 2.12387 18.8219 2.1375C18.372 2.14692 17.9289 2.24901 17.5203 2.4374C17.1116 2.62578 16.7462 2.89641 16.4469 3.23237C15.8968 3.88152 15.4738 4.62839 15.2 5.434C14.9268 4.62899 14.5046 3.88254 13.9555 3.23356C13.656 2.89709 13.2903 2.62607 12.8812 2.43747C12.4721 2.24887 12.0285 2.14675 11.5781 2.1375C11.0829 2.12322 10.59 2.21025 10.1296 2.39325C9.66927 2.57625 9.25114 2.85138 8.90089 3.20174C8.55064 3.5521 8.27565 3.97032 8.09279 4.43075C7.90993 4.89118 7.82306 5.38411 7.8375 5.87931C7.84692 6.32919 7.94901 6.77228 8.1374 7.18093C8.32578 7.58957 8.59641 7.95497 8.93237 8.25431C9.15502 8.45071 9.39331 8.62863 9.64487 8.78631H4.75C4.53158 8.78631 4.31529 8.82935 4.11351 8.91297C3.91173 8.9966 3.72841 9.11916 3.57401 9.27366C3.41962 9.42817 3.29719 9.61158 3.21371 9.81342C3.13023 10.0153 3.08734 10.2316 3.0875 10.45V14.25C3.0875 14.6909 3.26265 15.1138 3.57443 15.4256C3.88621 15.7373 4.30908 15.9125 4.75 15.9125H4.9875V23.75C4.9875 24.1909 5.16265 24.6138 5.47443 24.9256C5.78621 25.2373 6.20908 25.4125 6.65 25.4125H23.75C24.1909 25.4125 24.6138 25.2373 24.9256 24.9256C25.2373 24.6138 25.4125 24.1909 25.4125 23.75V15.9125H25.65C26.0909 15.9125 26.5138 15.7373 26.8256 15.4256C27.1373 15.1138 27.3125 14.6909 27.3125 14.25V10.45C27.3125 10.0091 27.1373 9.58621 26.8256 9.27443C26.5138 8.96265 26.0909 8.7875 25.65 8.7875ZM16.1227 7.48125C16.3899 6.042 16.8696 4.89844 17.5109 4.17406C17.6825 3.98468 17.8912 3.83265 18.1241 3.72743C18.357 3.62222 18.6091 3.56608 18.8646 3.5625H18.9299C19.2254 3.56253 19.5178 3.62183 19.7899 3.73689C20.062 3.85195 20.3083 4.02043 20.5141 4.23236C20.7199 4.44428 20.8812 4.69535 20.9882 4.97069C21.0953 5.24604 21.1461 5.54006 21.1375 5.83537C21.1335 6.09117 21.0768 6.3434 20.9709 6.57632C20.8651 6.80923 20.7124 7.01784 20.5224 7.18912C19.2494 8.3125 17.0905 8.64856 15.9529 8.74594C15.9826 8.40275 16.0312 7.96575 16.1227 7.48125ZM9.90969 4.20969C10.3242 3.79682 10.885 3.56424 11.4701 3.5625H11.5354C11.7912 3.56653 12.0434 3.62323 12.2763 3.72906C12.5092 3.8349 12.7178 3.98759 12.8891 4.17762C14.0125 5.45062 14.3486 7.6095 14.4459 8.74712C14.1027 8.71744 13.6657 8.66637 13.186 8.57731C11.7467 8.3125 10.6032 7.83037 9.87881 7.18794C9.68849 7.01707 9.5355 6.80874 9.42945 6.576C9.3234 6.34325 9.26656 6.09111 9.2625 5.83537C9.2543 5.53465 9.30746 5.23541 9.41873 4.9559C9.53 4.6764 9.69705 4.4225 9.90969 4.20969ZM4.5125 14.25V10.45C4.5125 10.387 4.53752 10.3266 4.58206 10.2821C4.6266 10.2375 4.68701 10.2125 4.75 10.2125H14.4875V14.4875H4.75C4.68701 14.4875 4.6266 14.4625 4.58206 14.4179C4.53752 14.3734 4.5125 14.313 4.5125 14.25ZM6.4125 23.75V15.9125H14.4875V23.9875H6.65C6.58701 23.9875 6.5266 23.9625 6.48206 23.9179C6.43752 23.8734 6.4125 23.813 6.4125 23.75ZM23.9875 23.75C23.9875 23.813 23.9625 23.8734 23.9179 23.9179C23.8734 23.9625 23.813 23.9875 23.75 23.9875H15.9125V15.9125H23.9875V23.75ZM25.8875 14.25C25.8875 14.313 25.8625 14.3734 25.8179 14.4179C25.7734 14.4625 25.713 14.4875 25.65 14.4875H15.9125V10.2125H25.65C25.713 10.2125 25.7734 10.2375 25.8179 10.2821C25.8625 10.3266 25.8875 10.387 25.8875 10.45V14.25Z" fill="#C2070B"/>
</svg>
