<svg width="20" height="20" viewBox="0 0 20 20" fill="none" xmlns="http://www.w3.org/2000/svg">
<path d="M18.75 9.375H16.8461C16.698 7.77508 15.995 6.27735 14.8588 5.1412C13.7226 4.00505 12.2249 3.30203 10.625 3.15391V1.25C10.625 1.08424 10.5592 0.925268 10.4419 0.808058C10.3247 0.690848 10.1658 0.625 10 0.625C9.83424 0.625 9.67527 0.690848 9.55806 0.808058C9.44085 0.925268 9.375 1.08424 9.375 1.25V3.15391C7.77508 3.30203 6.27735 4.00505 5.1412 5.1412C4.00505 6.27735 3.30203 7.77508 3.15391 9.375H1.25C1.08424 9.375 0.925268 9.44085 0.808058 9.55806C0.690848 9.67527 0.625 9.83424 0.625 10C0.625 10.1658 0.690848 10.3247 0.808058 10.4419C0.925268 10.5592 1.08424 10.625 1.25 10.625H3.15391C3.30203 12.2249 4.00505 13.7226 5.1412 14.8588C6.27735 15.995 7.77508 16.698 9.375 16.8461V18.75C9.375 18.9158 9.44085 19.0747 9.55806 19.1919C9.67527 19.3092 9.83424 19.375 10 19.375C10.1658 19.375 10.3247 19.3092 10.4419 19.1919C10.5592 19.0747 10.625 18.9158 10.625 18.75V16.8461C12.2249 16.698 13.7226 15.995 14.8588 14.8588C15.995 13.7226 16.698 12.2249 16.8461 10.625H18.75C18.9158 10.625 19.0747 10.5592 19.1919 10.4419C19.3092 10.3247 19.375 10.1658 19.375 10C19.375 9.83424 19.3092 9.67527 19.1919 9.55806C19.0747 9.44085 18.9158 9.375 18.75 9.375ZM10 15.625C8.88748 15.625 7.79994 15.2951 6.87492 14.677C5.94989 14.0589 5.22892 13.1804 4.80318 12.1526C4.37743 11.1248 4.26604 9.99376 4.48308 8.90262C4.70012 7.81147 5.23585 6.80919 6.02252 6.02252C6.80919 5.23585 7.81147 4.70012 8.90262 4.48308C9.99376 4.26604 11.1248 4.37743 12.1526 4.80318C13.1804 5.22892 14.0589 5.94989 14.677 6.87492C15.2951 7.79994 15.625 8.88748 15.625 10C15.6233 11.4913 15.0302 12.9211 13.9756 13.9756C12.9211 15.0302 11.4913 15.6233 10 15.625ZM10 6.875C9.38193 6.875 8.77775 7.05828 8.26384 7.40166C7.74994 7.74504 7.3494 8.2331 7.11288 8.80411C6.87635 9.37513 6.81447 10.0035 6.93505 10.6097C7.05562 11.2158 7.35325 11.7727 7.79029 12.2097C8.22733 12.6467 8.78415 12.9444 9.39034 13.065C9.99653 13.1855 10.6249 13.1236 11.1959 12.8871C11.7669 12.6506 12.255 12.2501 12.5983 11.7362C12.9417 11.2223 13.125 10.6181 13.125 10C13.125 9.1712 12.7958 8.37634 12.2097 7.79029C11.6237 7.20424 10.8288 6.875 10 6.875ZM10 11.875C9.62916 11.875 9.26665 11.765 8.95831 11.559C8.64996 11.353 8.40964 11.0601 8.26773 10.7175C8.12581 10.3749 8.08868 9.99792 8.16103 9.63421C8.23337 9.27049 8.41195 8.9364 8.67417 8.67417C8.9364 8.41195 9.27049 8.23337 9.63421 8.16103C9.99792 8.08868 10.3749 8.12581 10.7175 8.26773C11.0601 8.40964 11.353 8.64996 11.559 8.95831C11.765 9.26665 11.875 9.62916 11.875 10C11.875 10.4973 11.6775 10.9742 11.3258 11.3258C10.9742 11.6775 10.4973 11.875 10 11.875Z" fill="#1E1E1E"/>
</svg>
