<svg width="42" height="42" viewBox="0 0 42 42" fill="none" xmlns="http://www.w3.org/2000/svg">
<path d="M33.1226 8.96766C31.5525 7.38179 29.685 6.1212 27.6271 5.25805C25.5692 4.3949 23.3612 3.94615 21.1296 3.9375H21C16.4747 3.9375 12.1348 5.73515 8.93499 8.93499C5.73515 12.1348 3.9375 16.4747 3.9375 21V30.1875C3.9375 31.2318 4.35234 32.2333 5.09077 32.9717C5.82919 33.7102 6.83071 34.125 7.875 34.125H10.5C11.5443 34.125 12.5458 33.7102 13.2842 32.9717C14.0227 32.2333 14.4375 31.2318 14.4375 30.1875V23.625C14.4375 22.5807 14.0227 21.5792 13.2842 20.8408C12.5458 20.1023 11.5443 19.6875 10.5 19.6875H6.62156C6.87468 16.9508 7.90262 14.343 9.5849 12.1697C11.2672 9.99634 13.5341 8.34755 16.12 7.41655C18.7058 6.48555 21.5035 6.31092 24.185 6.91311C26.8666 7.51531 29.321 8.86939 31.2605 10.8166C33.631 13.1993 35.0891 16.3391 35.3801 19.6875H31.5C30.4557 19.6875 29.4542 20.1023 28.7158 20.8408C27.9773 21.5792 27.5625 22.5807 27.5625 23.625V30.1875C27.5625 31.2318 27.9773 32.2333 28.7158 32.9717C29.4542 33.7102 30.4557 34.125 31.5 34.125H35.4375C35.4375 35.1693 35.0227 36.1708 34.2842 36.9092C33.5458 37.6477 32.5443 38.0625 31.5 38.0625H22.3125C21.9644 38.0625 21.6306 38.2008 21.3844 38.4469C21.1383 38.6931 21 39.0269 21 39.375C21 39.7231 21.1383 40.0569 21.3844 40.3031C21.6306 40.5492 21.9644 40.6875 22.3125 40.6875H31.5C33.2405 40.6875 34.9097 39.9961 36.1404 38.7654C37.3711 37.5347 38.0625 35.8655 38.0625 34.125V21C38.071 18.7681 37.6391 16.5564 36.7914 14.4916C35.9437 12.4269 34.697 10.5497 33.1226 8.96766ZM10.5 22.3125C10.8481 22.3125 11.1819 22.4508 11.4281 22.6969C11.6742 22.9431 11.8125 23.2769 11.8125 23.625V30.1875C11.8125 30.5356 11.6742 30.8694 11.4281 31.1156C11.1819 31.3617 10.8481 31.5 10.5 31.5H7.875C7.5269 31.5 7.19306 31.3617 6.94692 31.1156C6.70078 30.8694 6.5625 30.5356 6.5625 30.1875V22.3125H10.5ZM31.5 31.5C31.1519 31.5 30.8181 31.3617 30.5719 31.1156C30.3258 30.8694 30.1875 30.5356 30.1875 30.1875V23.625C30.1875 23.2769 30.3258 22.9431 30.5719 22.6969C30.8181 22.4508 31.1519 22.3125 31.5 22.3125H35.4375V31.5H31.5Z" fill="white"/>
</svg>
