<svg width="42" height="42" viewBox="0 0 42 42" fill="none" xmlns="http://www.w3.org/2000/svg">
<path d="M35.531 6.46886C33.4463 4.38118 30.7189 3.05681 27.789 2.70946C24.8592 2.36211 21.8977 3.01204 19.3826 4.55438C16.8674 6.09672 14.9453 8.44149 13.9264 11.2103C12.9074 13.9792 12.8511 17.0106 13.7665 19.8153L4.70697 28.8749C4.46215 29.1177 4.26806 29.4069 4.13596 29.7254C4.00387 30.044 3.93641 30.3856 3.93751 30.7304V35.4374C3.93751 36.1336 4.21407 36.8013 4.70636 37.2935C5.19864 37.7858 5.86632 38.0624 6.56251 38.0624H11.8125C12.1606 38.0624 12.4944 37.9241 12.7406 37.678C12.9867 37.4318 13.125 37.098 13.125 36.7499V34.1249H15.75C16.0981 34.1249 16.432 33.9866 16.6781 33.7405C16.9242 33.4943 17.0625 33.1605 17.0625 32.8124V30.1874H19.6875C19.8599 30.1875 20.0307 30.1537 20.19 30.0878C20.3493 30.0219 20.4941 29.9253 20.6161 29.8035L22.1845 28.2334C23.4974 28.6604 24.8695 28.8769 26.25 28.8749H26.2664C28.861 28.8717 31.3964 28.0997 33.5524 26.6562C35.7083 25.2128 37.3881 23.1628 38.3795 20.7651C39.3709 18.3674 39.6295 15.7297 39.1225 13.1852C38.6155 10.6406 37.3657 8.30344 35.531 6.46886ZM36.75 16.0944C36.5712 21.6873 31.8692 26.2433 26.2681 26.2499H26.25C24.9214 26.2521 23.6045 26.001 22.3699 25.51C22.1284 25.4051 21.861 25.3754 21.6024 25.4245C21.3437 25.4737 21.1058 25.5995 20.9196 25.7856L19.1445 27.5624H15.75C15.4019 27.5624 15.0681 27.7007 14.8219 27.9468C14.5758 28.1929 14.4375 28.5268 14.4375 28.8749V31.4999H11.8125C11.4644 31.4999 11.1306 31.6382 10.8844 31.8843C10.6383 32.1304 10.5 32.4643 10.5 32.8124V35.4374H6.56251V30.7304L16.2143 21.0803C16.4004 20.8941 16.5262 20.6562 16.5754 20.3975C16.6245 20.1389 16.5947 19.8715 16.4899 19.63C15.9973 18.3913 15.7462 17.0698 15.75 15.7368C15.75 10.1357 20.3126 5.43363 25.9055 5.2548C27.3421 5.20686 28.7733 5.45441 30.1104 5.98212C31.4475 6.50982 32.662 7.30645 33.6786 8.32265C34.6953 9.33885 35.4925 10.553 36.0208 11.8898C36.5491 13.2267 36.7973 14.6577 36.75 16.0944ZM31.5 12.4686C31.5 12.858 31.3845 13.2386 31.1682 13.5624C30.9519 13.8862 30.6444 14.1385 30.2847 14.2875C29.9249 14.4365 29.5291 14.4755 29.1472 14.3995C28.7653 14.3236 28.4145 14.1361 28.1391 13.8607C27.8638 13.5854 27.6763 13.2346 27.6003 12.8527C27.5244 12.4708 27.5634 12.075 27.7124 11.7152C27.8614 11.3555 28.1137 11.048 28.4375 10.8317C28.7612 10.6153 29.1419 10.4999 29.5313 10.4999C30.0534 10.4999 30.5542 10.7073 30.9234 11.0765C31.2926 11.4457 31.5 11.9465 31.5 12.4686Z" fill="white"/>
</svg>
