<svg width="17" height="17" viewBox="0 0 17 17" fill="none" xmlns="http://www.w3.org/2000/svg">
<path d="M15 5H11.25V1.25C11.25 0.918479 11.1183 0.600537 10.8839 0.366116C10.6495 0.131696 10.3315 0 10 0H6.25C5.91848 0 5.60054 0.131696 5.36612 0.366116C5.1317 0.600537 5 0.918479 5 1.25V5H1.25C0.918479 5 0.600537 5.1317 0.366116 5.36612C0.131696 5.60054 0 5.91848 0 6.25V10C0 10.3315 0.131696 10.6495 0.366116 10.8839C0.600537 11.1183 0.918479 11.25 1.25 11.25H5V15C5 15.3315 5.1317 15.6495 5.36612 15.8839C5.60054 16.1183 5.91848 16.25 6.25 16.25H10C10.3315 16.25 10.6495 16.1183 10.8839 15.8839C11.1183 15.6495 11.25 15.3315 11.25 15V11.25H15C15.3315 11.25 15.6495 11.1183 15.8839 10.8839C16.1183 10.6495 16.25 10.3315 16.25 10V6.25C16.25 5.91848 16.1183 5.60054 15.8839 5.36612C15.6495 5.1317 15.3315 5 15 5ZM15 10H10.625C10.4592 10 10.3003 10.0658 10.1831 10.1831C10.0658 10.3003 10 10.4592 10 10.625V15H6.25V10.625C6.25 10.4592 6.18415 10.3003 6.06694 10.1831C5.94973 10.0658 5.79076 10 5.625 10H1.25V6.25H5.625C5.79076 6.25 5.94973 6.18415 6.06694 6.06694C6.18415 5.94973 6.25 5.79076 6.25 5.625V1.25H10V5.625C10 5.79076 10.0658 5.94973 10.1831 6.06694C10.3003 6.18415 10.4592 6.25 10.625 6.25H15V10Z" fill="#646464"/>
</svg>
