<svg width="17" height="14" viewBox="0 0 17 14" fill="none" xmlns="http://www.w3.org/2000/svg">
<path d="M16.2989 7.36179L10.1114 13.5493C9.9824 13.6783 9.80744 13.7508 9.625 13.7508C9.44256 13.7508 9.2676 13.6783 9.13859 13.5493C9.00959 13.4203 8.93712 13.2453 8.93712 13.0629C8.93712 12.8804 9.00959 12.7055 9.13859 12.5765L14.153 7.56288H0.6875C0.505164 7.56288 0.330295 7.49045 0.201364 7.36152C0.072433 7.23259 0 7.05772 0 6.87538C0 6.69305 0.072433 6.51818 0.201364 6.38925C0.330295 6.26032 0.505164 6.18788 0.6875 6.18788H14.153L9.13859 1.17429C9.00959 1.04529 8.93712 0.87032 8.93712 0.687882C8.93712 0.505445 9.00959 0.330479 9.13859 0.201476C9.2676 0.072473 9.44256 0 9.625 0C9.80744 0 9.9824 0.072473 10.1114 0.201476L16.2989 6.38898C16.3628 6.45283 16.4135 6.52865 16.4481 6.61211C16.4827 6.69557 16.5005 6.78503 16.5005 6.87538C16.5005 6.96573 16.4827 7.05519 16.4481 7.13865C16.4135 7.22211 16.3628 7.29794 16.2989 7.36179Z" fill="white"/>
</svg>
