<svg width="17" height="14" viewBox="0 0 17 14" fill="none" xmlns="http://www.w3.org/2000/svg">
<path d="M0.201582 7.36179L6.38908 13.5493C6.51808 13.6783 6.69305 13.7508 6.87549 13.7508C7.05793 13.7508 7.23289 13.6783 7.36189 13.5493C7.4909 13.4203 7.56337 13.2453 7.56337 13.0629C7.56337 12.8804 7.4909 12.7055 7.36189 12.5765L2.34744 7.56288H15.813C15.9953 7.56288 16.1702 7.49045 16.2991 7.36152C16.4281 7.23259 16.5005 7.05772 16.5005 6.87538C16.5005 6.69305 16.4281 6.51818 16.2991 6.38925C16.1702 6.26032 15.9953 6.18788 15.813 6.18788H2.34744L7.36189 1.17429C7.4909 1.04529 7.56337 0.87032 7.56337 0.687882C7.56337 0.505445 7.4909 0.330479 7.36189 0.201476C7.23289 0.072473 7.05793 0 6.87549 0C6.69305 0 6.51808 0.072473 6.38908 0.201476L0.201582 6.38898C0.137661 6.45283 0.0869503 6.52865 0.0523529 6.61211C0.0177555 6.69557 -5.14984e-05 6.78503 -5.14984e-05 6.87538C-5.14984e-05 6.96573 0.0177555 7.05519 0.0523529 7.13865C0.0869503 7.22212 0.137661 7.29794 0.201582 7.36179Z" fill="white"/>
</svg>
